<?xml version="1.0" encoding="UTF-8"?>
<svg width="27px" height="29px" viewBox="0 0 27 29" version="1.1" xmlns="http://www.w3.org/2000/svg" xmlns:xlink="http://www.w3.org/1999/xlink">
    <title>GPS</title>
    <g id="Page-1" stroke="none" stroke-width="1" fill="none" fill-rule="evenodd">
        <g id="7992" transform="translate(-226.000000, -158.000000)" fill="#FCBA30">
            <g id="GPS" transform="translate(226.655960, 158.958000)">
                <path d="M11.0500404,20.811 L16.5660404,26.327 L2.66504039,26.327 L8.18104039,20.811 L11.0500404,20.811 Z M5.28704039,3.601 L20.9370404,19.25 L5.28704039,19.25 L5.28704039,3.601 Z M0.0590403909,27.406 C0.180040391,27.698 0.465040391,27.888 0.781040391,27.888 L18.4510404,27.888 C18.7660404,27.888 19.0510404,27.698 19.1720404,27.406 C19.2920404,27.115 19.2260404,26.779 19.0030404,26.556 L13.2580404,20.811 L22.8210404,20.811 C23.1360404,20.811 23.4210404,20.621 23.5420404,20.329 C23.6630404,20.038 23.5960404,19.702 23.3730404,19.479 L5.05804039,1.165 C4.83604039,0.941 4.50004039,0.874 4.20804039,0.996 C3.91704039,1.116 3.72704039,1.4 3.72704039,1.717 L3.72704039,20.031 C3.72704039,20.461 4.07604039,20.811 4.50704039,20.811 L5.97404039,20.811 L0.229040391,26.556 C0.00504039089,26.779 -0.0609596091,27.115 0.0590403909,27.406 L0.0590403909,27.406 Z" id="Fill-99"></path>
                <path d="M10.2400404,2.781 C10.2400404,2.538 10.4370404,2.341 10.6800404,2.341 L19.8020404,2.341 C19.7380404,2.591 19.6990404,2.852 19.6990404,3.122 C19.6990404,3.156 19.7030404,3.188 19.7040404,3.222 L10.6800404,3.222 C10.4370404,3.222 10.2400404,3.024 10.2400404,2.781 Z M22.8210404,4.995 C21.7880404,4.995 20.9480404,4.155 20.9480404,3.122 C20.9480404,2.089 21.7880404,1.249 22.8210404,1.249 C23.8540404,1.249 24.6940404,2.089 24.6940404,3.122 C24.6940404,4.155 23.8540404,4.995 22.8210404,4.995 Z M23.0160404,15.557 C22.7720404,15.557 22.5750404,15.359 22.5750404,15.116 L22.5750404,6.231 C22.6570404,6.237 22.7380404,6.244 22.8210404,6.244 C23.0380404,6.244 23.2510404,6.221 23.4560404,6.179 L23.4560404,15.116 C23.4560404,15.359 23.2580404,15.557 23.0160404,15.557 Z M22.8210404,0 C21.8750404,0 21.0270404,0.425 20.4540404,1.092 L10.6800404,1.092 C9.74904039,1.092 8.99104039,1.85 8.99104039,2.781 C8.99104039,3.713 9.74904039,4.471 10.6800404,4.471 L20.0100404,4.471 C20.2930404,5.06 20.7550404,5.548 21.3260404,5.861 L21.3260404,15.116 C21.3260404,16.048 22.0840404,16.806 23.0160404,16.806 C23.9470404,16.806 24.7050404,16.048 24.7050404,15.116 L24.7050404,5.605 C25.4550404,5.035 25.9430404,4.136 25.9430404,3.122 C25.9430404,1.4 24.5420404,0 22.8210404,0 L22.8210404,0 Z" id="Fill-100"></path>
            </g>
        </g>
    </g>
</svg>