<?xml version="1.0" encoding="UTF-8"?>
<!-- Generated by Pixelmator Pro 3.3.2 -->
<svg width="340" height="154" viewBox="0 0 340 154" xmlns="http://www.w3.org/2000/svg" xmlns:xlink="http://www.w3.org/1999/xlink">
    <path id="Path" fill="#aeaeae" stroke="none" d="M 191.973007 106.806 C 191.973007 107.607002 192.641998 108.245003 193.442993 108.207001 L 205.313004 107.639999 C 206.061005 107.603996 206.649002 106.987 206.649002 106.237999 L 206.649002 68.727798 C 206.649002 67.930801 205.985992 67.2939 205.190002 67.325798 L 193.320007 67.800598 C 192.567001 67.830704 191.973007 68.449501 191.973007 69.202599 L 191.973007 106.806 Z"/>
    <path id="path1" fill="#aeaeae" stroke="none" d="M 193.817993 60.306595 C 195.270996 61.760201 197.087997 62.487099 199.268997 62.487099 C 201.561005 62.487099 203.406006 61.760201 204.804001 60.306595 C 206.257996 58.796997 206.985001 56.923996 206.985001 54.687599 C 206.985001 52.507095 206.257996 50.662102 204.804001 49.152496 C 203.406006 47.643005 201.561005 46.888199 199.268997 46.888199 C 197.087997 46.888199 195.270996 47.643005 193.817993 49.152496 C 192.363998 50.662102 191.636993 52.507095 191.636993 54.687599 C 191.636993 56.923996 192.363998 58.796997 193.817993 60.306595 Z"/>
    <path id="path2" fill="#aeaeae" fill-rule="evenodd" stroke="none" d="M 156.658005 84.208099 L 156.658005 104.596001 C 156.658005 105.272003 156.177002 105.850998 155.513 105.975998 L 143.307007 108.257004 C 142.444 108.418999 141.645996 107.755997 141.645996 106.877998 L 141.645996 50.2202 C 141.645996 49.445297 142.274994 48.817101 143.050003 48.817101 L 166.973999 48.817101 C 170.998993 48.817101 174.522003 49.571899 177.541 51.081406 C 180.615997 52.591003 183.020004 54.659698 184.753006 57.287399 C 186.485992 59.915199 187.352997 62.990295 187.352997 66.512604 C 187.352997 70.034897 186.457993 73.137901 184.669006 75.821602 C 182.936005 78.449402 180.503998 80.518097 177.373001 82.027603 C 176.018997 82.656502 174.565002 83.1493 173.011002 83.506104 L 188.932007 105.176003 C 189.707001 106.231003 188.742996 107.679001 187.470993 107.371002 L 174.311005 104.18 C 174.011993 104.107002 173.746002 103.939003 173.552002 103.699997 L 157.731995 84.208099 L 156.658005 84.208099 Z M 156.658005 73.473396 L 164.876999 73.473396 C 167.337006 73.473396 169.210007 72.886299 170.496002 71.712196 C 171.837997 70.482201 172.509003 68.832901 172.509003 66.764198 C 172.509003 64.751404 171.837997 63.130005 170.496002 61.900002 C 169.210007 60.614105 167.337006 59.9711 164.876999 59.9711 L 156.658005 59.9711 L 156.658005 73.473396 Z"/>
    <path id="path3" fill="#aeaeae" stroke="none" d="M 226.557999 109.450996 C 224.042007 109.450996 221.554001 109.115997 219.093994 108.445 C 216.690002 107.774002 214.425003 106.879997 212.300995 105.761002 C 210.675995 104.838997 209.240997 103.813004 207.994995 102.683998 C 207.432999 102.175003 207.440002 101.305 207.970993 100.762001 L 213.972 94.634804 C 214.526001 94.069099 215.434006 94.079803 216.037994 94.591797 C 217.139008 95.524696 218.380997 96.284698 219.764999 96.871696 C 221.666 97.654503 223.677994 98.045799 225.802994 98.045799 C 227.033005 98.045799 227.955994 97.878098 228.570999 97.542702 C 229.242004 97.207199 229.576996 96.732002 229.576996 96.116898 C 229.576996 95.222397 229.102005 94.551498 228.151001 94.104202 C 227.257004 93.600998 226.054993 93.181702 224.544998 92.846199 C 223.091003 92.454803 221.554001 92.007599 219.932999 91.504402 C 218.311005 90.945297 216.746002 90.218399 215.235992 89.323898 C 213.725998 88.429298 212.496002 87.171303 211.546005 85.550003 C 210.651001 83.928596 210.203995 81.859901 210.203995 79.343903 C 210.203995 76.716202 210.903 74.423897 212.300995 72.467003 C 213.753998 70.4543 215.766998 68.888802 218.339005 67.770599 C 220.910995 66.596497 223.929993 66.009399 227.395996 66.009399 C 230.919006 66.009399 234.272995 66.624397 237.460007 67.854401 C 240.171005 68.852997 242.893005 70.787498 244.850998 72.822601 C 245.397995 73.391998 245.291 74.298302 244.664001 74.779999 L 237.723007 80.119499 C 237.139008 80.568398 236.317993 80.477402 235.770996 79.984802 C 234.817993 79.1269 233.917007 78.680199 232.679993 78.2537 C 231.059006 77.638702 229.576996 77.3312 228.235001 77.3312 C 226.949005 77.3312 226.026993 77.526901 225.468002 77.918198 C 224.908997 78.2537 224.628998 78.728897 224.628998 79.343903 C 224.628998 80.070801 225.076004 80.657799 225.970993 81.105103 C 226.921005 81.552399 228.123001 81.971703 229.576996 82.363098 C 231.087006 82.698502 232.623993 83.145798 234.190002 83.704903 C 235.811005 84.264 237.348007 85.046799 238.802002 86.053101 C 240.311996 87.003601 241.514008 88.289497 242.408005 89.910896 C 243.358994 91.532303 243.834 93.628998 243.834 96.200798 C 243.834 100.281998 242.268997 103.525002 239.138 105.929001 C 236.007004 108.277 231.813004 109.450996 226.557999 109.450996 Z"/>
    <path id="path4" fill="#aeaeae" fill-rule="evenodd" stroke="none" d="M 254.794998 106.515999 C 258.317993 108.305 262.371002 109.199997 266.955994 109.199997 C 270.589996 109.199997 273.833008 108.612999 276.68399 107.439003 C 279.171997 106.433998 281.332001 105.019997 283.164001 103.196999 C 283.688995 102.676003 283.65799 101.832001 283.13501 101.308998 L 277.48999 95.664902 C 276.916992 95.092102 275.984985 95.129303 275.38501 95.6735 C 274.424988 96.544197 273.376007 97.223099 272.239014 97.710403 C 270.730011 98.381302 268.968994 98.716797 266.955994 98.716797 C 264.830994 98.716797 263.041992 98.297401 261.588989 97.458801 C 260.13501 96.620102 259.016998 95.390099 258.234009 93.7687 C 258.041992 93.358101 257.873993 92.927399 257.729004 92.476501 L 285.406006 92.348099 C 286.048004 92.3451 286.610992 91.908501 286.737 91.279602 C 286.875 90.593002 286.962006 89.969101 287 89.4077 C 287.110992 88.513199 287.166992 87.646599 287.166992 86.807899 C 287.166992 82.838303 286.244995 79.316002 284.399994 76.240898 C 282.610992 73.110001 280.095001 70.677902 276.85199 68.944702 C 273.665009 67.155602 270.002991 66.261002 265.865997 66.261002 C 261.615997 66.261002 257.786987 67.211502 254.376007 69.112396 C 251.022003 70.957397 248.365997 73.501404 246.408997 76.744102 C 244.451996 79.931 243.473999 83.593102 243.473999 87.7304 C 243.473999 91.923698 244.479996 95.641701 246.492996 98.884499 C 248.505997 102.126999 251.272995 104.670998 254.794998 106.515999 Z M 257.697998 83.056999 C 257.82901 82.639503 257.979004 82.240402 258.149994 81.859901 C 258.877014 80.238503 259.911011 78.980499 261.252991 78.085999 C 262.595001 77.191399 264.187988 76.744102 266.03299 76.744102 C 267.821991 76.744102 269.303986 77.135498 270.477997 77.918198 C 271.652008 78.700996 272.546997 79.847099 273.161987 81.356697 C 273.364014 81.834099 273.536011 82.356697 273.677002 82.924599 L 257.697998 83.056999 Z"/>
    <path id="path5" fill="#aeaeae" stroke="none" d="M 269.862 60.436501 L 269.862 49.612305 L 272.614014 49.612305 L 272.614014 60.436501 L 269.862 60.436501 Z M 266.524994 51.903305 L 266.524994 49.5355 L 275.950012 49.5355 L 275.950012 51.903305 L 266.524994 51.903305 Z M 276.433014 60.436501 L 276.433014 49.5355 L 278.416992 49.5355 L 282.598999 55.854698 L 281.661011 55.854698 L 285.828003 49.5355 L 287.811005 49.5355 L 287.811005 60.436501 L 285.089996 60.436501 L 285.089996 54.086502 L 285.519989 54.209503 L 283.014008 57.976501 L 281.230011 57.976501 L 278.73999 54.209503 L 279.170013 54.086502 L 279.170013 60.436501 L 276.433014 60.436501 Z"/>
    <path id="path6" fill="#aeaeae" stroke="none" d="M 69.976097 43.814804 C 69.976097 42.982605 70.595802 42.280602 71.4216 42.177399 L 81.322701 40.939697 C 82.307602 40.816605 83.177498 41.584595 83.177498 42.577202 L 83.177498 75.1427 C 83.177498 76.1353 82.307602 76.903198 81.322701 76.780098 L 71.4216 75.542503 C 70.595802 75.439201 69.976097 74.737297 69.976097 73.904999 L 69.976097 43.814804 Z"/>
    <path id="path7" fill="#aeaeae" stroke="none" d="M 50.173801 47.9403 C 50.173801 47.108101 50.793499 46.406097 51.619301 46.302795 L 61.520401 45.065201 C 62.505402 44.942101 63.375301 45.710098 63.375301 46.702698 L 63.375301 72.667397 C 63.375301 73.660004 62.505402 74.427902 61.520401 74.304802 L 51.619301 73.0672 C 50.793499 72.963997 50.173801 72.262001 50.173801 71.429703 L 50.173801 47.9403 Z"/>
    <path id="path8" fill="#aeaeae" stroke="none" d="M 101.730003 43.695801 C 102.463997 43.879395 102.980003 44.539505 102.980003 45.2967 L 102.980003 59.053398 C 102.980003 59.885605 102.360001 60.587601 101.533997 60.690796 L 91.633102 61.928398 C 90.648201 62.051605 89.778297 61.2836 89.778297 60.291 L 89.778297 42.821396 C 89.778297 41.747803 90.787201 40.960098 91.828697 41.220505 L 101.730003 43.695801 Z"/>
    <path id="path9" fill="#aeaeae" stroke="none" d="M 121.132004 49.422104 C 121.132004 48.664902 120.615997 48.004898 119.882004 47.821198 L 109.981003 45.346001 C 108.939003 45.085602 107.93 45.873299 107.93 46.946899 L 107.93 59.465897 C 107.93 60.458496 108.800003 61.226501 109.785004 61.103302 L 119.685997 59.8657 C 120.512001 59.762497 121.132004 59.060501 121.132004 58.228302 L 121.132004 49.422104 Z"/>
    <path id="path10" fill="#aeaeae" stroke="none" d="M 121.132004 66.285797 L 88.953201 67.110901 C 89.4188 73.163399 94.465797 77.837097 100.536003 77.837097 L 107.93 77.837097 L 107.93 84.859901 L 50.173801 79.487198 L 50.173801 113.889999 L 121.132004 108.939003 L 121.132004 66.285797 Z"/>
</svg>
