<?xml version="1.0" encoding="UTF-8"?>
<!-- Generated by Pixelmator Pro 3.3.2 -->
<svg width="451" height="208" viewBox="0 0 451 208" xmlns="http://www.w3.org/2000/svg" xmlns:xlink="http://www.w3.org/1999/xlink">
    <path id="Path" fill="#aeaeae" fill-rule="evenodd" stroke="none" d="M 104.448997 158 C 134.272003 158 158.449005 133.822998 158.449005 104 C 158.449005 74.176605 134.272003 50 104.448997 50 C 74.625397 50 50.4487 74.176605 50.4487 104 C 50.4487 133.822998 74.625397 158 104.448997 158 Z M 108.106003 75.622803 C 112.565002 73.618698 117.686996 73.721191 122.061996 75.902191 C 128.535004 79.129089 128.399994 88.4104 121.835999 91.447701 L 107.274002 98.186203 C 105.884003 98.829597 104.275002 98.800003 102.908997 98.106003 L 89.219704 91.149498 C 87.7966 90.4263 86.056801 90.993698 85.333603 92.416801 C 84.610497 93.839897 85.177902 95.579697 86.600899 96.302902 L 102.453003 104.359001 C 104.032997 105.161003 105.891998 105.195 107.5 104.450996 L 124.264 96.693901 C 135.227005 91.620796 135.451996 76.1185 124.640999 70.728897 C 118.714996 67.774399 111.776001 67.635498 105.736 70.350403 L 75.950203 83.739304 C 73.874603 84.672203 72.539597 86.736099 72.539597 89.011703 L 72.539597 98.521599 C 72.539597 100.713997 73.779297 102.717003 75.741096 103.695 L 102.433998 117.002998 C 104.057999 117.811996 105.968002 117.811996 107.592003 117.002998 L 129.069 106.295998 C 130.281006 105.691002 131.705994 106.572998 131.705994 107.928001 C 131.705994 108.619003 131.315002 109.250999 130.695999 109.559998 L 107.244003 121.251999 C 105.838997 121.952003 104.186996 121.952003 102.781998 121.251999 L 80.8993 110.342003 C 77.056198 108.426003 72.539597 111.221001 72.539597 115.514999 L 72.539597 120.643997 C 72.539597 122.835999 73.779297 124.839996 75.741096 125.818001 L 102.444 139.130005 C 104.056999 139.934006 105.953003 139.940002 107.570999 139.145996 L 128.011993 129.110001 C 129.445007 128.406006 130.035995 126.674004 129.332993 125.240997 C 128.628998 123.807999 126.898003 123.217003 125.464996 123.920998 L 107.244003 132.865997 C 105.844002 133.554001 104.204002 133.548996 102.808998 132.852997 L 79.591301 121.278 C 78.812401 120.889999 78.320198 120.094002 78.320198 119.223999 C 78.320198 117.518997 80.113403 116.408997 81.639198 117.169998 L 102.433998 127.537003 C 104.057999 128.347 105.968002 128.347 107.592003 127.537003 L 134.285004 114.230003 C 136.246994 113.251999 137.487 111.248001 137.487 109.056 L 137.487 104.981003 C 137.487 100.686996 132.970001 97.891502 129.126999 99.807404 L 107.244003 110.717003 C 105.838997 111.417 104.186996 111.417 102.781998 110.717003 L 81.089401 99.902199 C 79.392601 99.056297 78.320198 97.323402 78.320198 95.427399 L 78.320198 92.246101 C 78.320198 90.277802 79.474998 88.492699 81.270302 87.685699 L 108.106003 75.622803 Z"/>
    <path id="path1" fill="#aeaeae" stroke="none" d="M 192.197998 88.515099 L 192.197998 100.028 L 207.656998 100.028 L 207.656998 107.330002 L 192.197998 107.330002 L 192.197998 119.5 L 209.630997 119.5 L 209.630997 127 L 182.988007 127 L 182.988007 81.015602 L 209.630997 81.015602 L 209.630997 88.515099 L 192.197998 88.515099 Z"/>
    <path id="path2" fill="#aeaeae" stroke="none" d="M 224.578995 95.883102 C 225.763 94.128799 227.386002 92.703499 229.447006 91.607101 C 231.552994 90.510597 233.942993 89.962402 236.617996 89.962402 C 239.731995 89.962402 242.539001 90.729897 245.039001 92.2649 C 247.582001 93.799896 249.578003 95.992798 251.024994 98.843498 C 252.516006 101.650002 253.261993 104.917999 253.261993 108.646004 C 253.261993 112.373001 252.516006 115.684998 251.024994 118.579002 C 249.578003 121.43 247.582001 123.644997 245.039001 125.223999 C 242.539001 126.802002 239.731995 127.592003 236.617996 127.592003 C 233.899002 127.592003 231.509003 127.066002 229.447006 126.013 C 227.429993 124.917 225.807007 123.513 224.578995 121.803001 L 224.578995 127 L 215.369003 127 L 215.369003 78.31839 L 224.578995 78.31839 L 224.578995 95.883102 Z M 243.854004 108.646004 C 243.854004 106.453003 243.393997 104.567001 242.473007 102.987999 C 241.595993 101.364998 240.412003 100.137001 238.919998 99.304001 C 237.473007 98.470703 235.893997 98.0541 234.184006 98.0541 C 232.516998 98.0541 230.938004 98.492599 229.447006 99.369797 C 228 100.203003 226.815994 101.431 225.895004 103.054001 C 225.018005 104.676003 224.578995 106.584 224.578995 108.777 C 224.578995 110.970001 225.018005 112.877998 225.895004 114.5 C 226.815994 116.123001 228 117.373001 229.447006 118.25 C 230.938004 119.084 232.516998 119.5 234.184006 119.5 C 235.893997 119.5 237.473007 119.061996 238.919998 118.183998 C 240.412003 117.306999 241.595993 116.056999 242.473007 114.434998 C 243.393997 112.811996 243.854004 110.882004 243.854004 108.646004 Z"/>
    <path id="path3" fill="#aeaeae" stroke="none" d="M 273.506012 127.592003 C 269.997986 127.592003 266.839996 126.823997 264.03299 125.289001 C 261.226013 123.709999 259.010986 121.496002 257.389008 118.644997 C 255.809998 115.793999 255.020996 112.504997 255.020996 108.777 C 255.020996 105.049004 255.832001 101.760002 257.454987 98.909302 C 259.121002 96.058601 261.380005 93.8657 264.230011 92.330704 C 267.080994 90.751801 270.260986 89.962402 273.769012 89.962402 C 277.278015 89.962402 280.458008 90.751801 283.308014 92.330704 C 286.158997 93.8657 288.395996 96.058601 290.018005 98.909302 C 291.684998 101.760002 292.518005 105.049004 292.518005 108.777 C 292.518005 112.504997 291.662994 115.793999 289.953003 118.644997 C 288.286011 121.496002 286.006012 123.709999 283.110992 125.289001 C 280.26001 126.823997 277.05899 127.592003 273.506012 127.592003 Z M 273.506012 119.566002 C 275.173004 119.566002 276.730011 119.170998 278.177002 118.382004 C 279.667999 117.549004 280.85199 116.320999 281.729004 114.697998 C 282.606995 113.074997 283.045013 111.101997 283.045013 108.777 C 283.045013 105.311996 282.123993 102.658997 280.282013 100.817001 C 278.484009 98.931198 276.269012 97.988297 273.638 97.988297 C 271.006012 97.988297 268.791992 98.931198 266.993011 100.817001 C 265.239014 102.658997 264.362 105.311996 264.362 108.777 C 264.362 112.241997 265.21701 114.917 266.928009 116.803001 C 268.682007 118.644997 270.875 119.566002 273.506012 119.566002 Z"/>
    <path id="path4" fill="#aeaeae" stroke="none" d="M 312.825989 127.592003 C 309.316986 127.592003 306.160004 126.823997 303.352997 125.289001 C 300.54599 123.709999 298.330994 121.496002 296.709015 118.644997 C 295.130005 115.793999 294.339996 112.504997 294.339996 108.777 C 294.339996 105.049004 295.152008 101.760002 296.773987 98.909302 C 298.44101 96.058601 300.700012 93.8657 303.549988 92.330704 C 306.401001 90.751801 309.580994 89.962402 313.088989 89.962402 C 316.597992 89.962402 319.777008 90.751801 322.627991 92.330704 C 325.479004 93.8657 327.716003 96.058601 329.338013 98.909302 C 331.005005 101.760002 331.838013 105.049004 331.838013 108.777 C 331.838013 112.504997 330.983002 115.793999 329.272003 118.644997 C 327.605988 121.496002 325.325012 123.709999 322.431 125.289001 C 319.579987 126.823997 316.377991 127.592003 312.825989 127.592003 Z M 312.825989 119.566002 C 314.493011 119.566002 316.049988 119.170998 317.497009 118.382004 C 318.988007 117.549004 320.171997 116.320999 321.049011 114.697998 C 321.925995 113.074997 322.36499 111.101997 322.36499 108.777 C 322.36499 105.311996 321.444 102.658997 319.60199 100.817001 C 317.803986 98.931198 315.588989 97.988297 312.958008 97.988297 C 310.325989 97.988297 308.110992 98.931198 306.312988 100.817001 C 304.55899 102.658997 303.682007 105.311996 303.682007 108.777 C 303.682007 112.241997 304.536987 114.917 306.247009 116.803001 C 308.002014 118.644997 310.195007 119.566002 312.825989 119.566002 Z"/>
    <path id="path5" fill="#aeaeae" stroke="none" d="M 357.540009 127 L 345.173004 111.473999 L 345.173004 127 L 335.963013 127 L 335.963013 78.31839 L 345.173004 78.31839 L 345.173004 106.014 L 357.408997 90.554497 L 369.381989 90.554497 L 353.329987 108.843002 L 369.513 127 L 357.540009 127 Z"/>
    <path id="path6" fill="#aeaeae" stroke="none" d="M 385.695007 127.592003 C 382.713013 127.592003 380.037994 127.066002 377.670013 126.013 C 375.300995 124.917 373.415009 123.446999 372.011993 121.605003 C 370.652008 119.763 369.907013 117.723999 369.774994 115.487 L 379.050995 115.487 C 379.22699 116.890999 379.906006 118.053001 381.089996 118.973999 C 382.317993 119.894997 383.832001 120.355003 385.630005 120.355003 C 387.384003 120.355003 388.743988 120.004997 389.708008 119.303001 C 390.71701 118.600998 391.221008 117.702003 391.221008 116.606003 C 391.221008 115.420998 390.606995 114.543999 389.378998 113.973999 C 388.195007 113.360001 386.287994 112.702003 383.656006 112.000999 C 380.937012 111.343002 378.700012 110.663002 376.946014 109.960999 C 375.235992 109.260002 373.743988 108.184998 372.472992 106.737999 C 371.244995 105.290001 370.631012 103.338997 370.631012 100.883003 C 370.631012 98.865402 371.200989 97.023399 372.341003 95.356796 C 373.524994 93.6903 375.191986 92.374603 377.341003 91.409698 C 379.533997 90.444801 382.098999 89.962402 385.037994 89.962402 C 389.378998 89.962402 392.843994 91.0588 395.432007 93.251701 C 398.019012 95.400703 399.445007 98.3172 399.708008 102.000999 L 390.893005 102.000999 C 390.760986 100.554001 390.147003 99.413597 389.050995 98.580299 C 387.997986 97.703201 386.572998 97.264603 384.773987 97.264603 C 383.108002 97.264603 381.813995 97.571602 380.893005 98.1856 C 380.015991 98.799599 379.576996 99.6548 379.576996 100.750999 C 379.576996 101.978996 380.19101 102.921997 381.419006 103.580002 C 382.647003 104.194 384.554993 104.830002 387.143005 105.487999 C 389.773987 106.146004 391.945007 106.824997 393.656006 107.527 C 395.365997 108.228996 396.834991 109.324997 398.062988 110.816002 C 399.334991 112.264 399.993011 114.193001 400.036987 116.606003 C 400.036987 118.710999 399.445007 120.597 398.260986 122.263 C 397.119995 123.93 395.45401 125.245003 393.260986 126.209999 C 391.112 127.130997 388.589996 127.592003 385.695007 127.592003 Z"/>
</svg>
