<?xml version="1.0" encoding="UTF-8"?>
<!-- Generated by Pixelmator Pro 3.3.2 -->
<svg width="451" height="165" viewBox="0 0 451 165" xmlns="http://www.w3.org/2000/svg" xmlns:xlink="http://www.w3.org/1999/xlink">
    <path id="Path" fill="#aeaeae" stroke="none" d="M 162.589005 107.972 C 157.528 107.972 153.054001 106.977997 149.167007 104.988998 C 145.279999 102.955002 142.274994 100.085999 140.151001 96.379799 C 138.026993 92.673897 136.964996 88.312798 136.964996 83.296402 C 136.964996 78.2799 138.026993 73.9188 140.151001 70.212997 C 142.274994 66.461899 145.279999 63.592201 149.167007 61.603699 C 153.054001 59.57 157.528 58.553101 162.589005 58.553101 C 166.024002 58.553101 169.052002 58.914703 171.673004 59.637802 C 174.339996 60.315704 176.779999 61.400299 178.994003 62.891701 L 178.994003 72.721199 C 177.005997 71.0942 174.723999 69.919197 172.147995 69.196098 C 169.617004 68.427803 166.725006 68.043701 163.470993 68.043701 C 160.442993 68.043701 157.707993 68.676399 155.268005 69.941803 C 152.873001 71.162003 150.975006 72.9245 149.574005 75.229401 C 148.173004 77.534203 147.472 80.223198 147.472 83.296402 C 147.472 86.414703 148.104996 89.148903 149.369995 91.498901 C 150.681 93.803802 152.511002 95.588898 154.860992 96.854301 C 157.210999 98.119698 159.923004 98.752403 162.996002 98.752403 C 165.798004 98.752403 168.238007 98.255302 170.317001 97.261002 L 170.317001 88.109398 L 162.656998 88.109398 L 162.656998 80.516998 L 180.281998 80.516998 L 180.281998 103.362 C 175.807999 106.434998 169.910995 107.972 162.589005 107.972 Z"/>
    <path id="path1" fill="#aeaeae" stroke="none" d="M 182.662003 74.415901 L 192.559006 74.415901 L 192.559006 79.093399 C 193.869995 77.511703 195.699997 76.314003 198.050003 75.500603 C 200.399994 74.641899 203.067001 74.212601 206.048996 74.212601 L 206.048996 82.0084 C 202.931 82.0084 200.173996 82.482903 197.779007 83.4319 C 195.429001 84.380997 193.802002 85.827202 192.897995 87.7705 L 192.897995 106.955002 L 182.662003 106.955002 L 182.662003 74.415901 Z"/>
    <path id="path2" fill="#aeaeae" stroke="none" d="M 225.720993 107.972 C 219.483994 107.972 214.580002 106.480003 211.009995 103.498001 C 207.440002 100.470001 205.654999 96.244202 205.654999 90.820999 C 205.654999 85.443001 207.237 81.194901 210.399994 78.076599 C 213.608994 74.958199 218.173004 73.399101 224.093994 73.399101 C 227.979996 73.399101 231.279007 74.1222 233.990997 75.568298 C 236.701996 77.014503 238.759003 79.025597 240.160004 81.601601 C 241.561005 84.132401 242.261002 87.002197 242.261002 90.210899 L 242.261002 94.3461 L 215.417007 94.3461 C 216.139999 98.503899 220.026001 100.583 227.076004 100.583 C 229.154999 100.583 231.302002 100.402 233.516006 100.040001 C 235.731003 99.678902 237.651993 99.181702 239.279007 98.549004 L 239.279007 105.735001 C 237.697006 106.413002 235.662994 106.955002 233.177002 107.362 C 230.692001 107.767998 228.205994 107.972 225.720993 107.972 Z M 232.567001 87.702698 C 232.432007 85.533401 231.617996 83.861298 230.126999 82.686302 C 228.636002 81.466003 226.578995 80.855904 223.957993 80.855904 C 221.382004 80.855904 219.348007 81.466003 217.856995 82.686302 C 216.365997 83.906502 215.552002 85.578598 215.417007 87.702698 L 232.567001 87.702698 Z"/>
    <path id="path3" fill="#aeaeae" stroke="none" d="M 263.243011 107.972 C 257.006989 107.972 252.102997 106.480003 248.533005 103.498001 C 244.962997 100.470001 243.177002 96.244202 243.177002 90.820999 C 243.177002 85.443001 244.759003 81.194901 247.923004 78.076599 C 251.130997 74.958199 255.695999 73.399101 261.615997 73.399101 C 265.502991 73.399101 268.802002 74.1222 271.514008 75.568298 C 274.225006 77.014503 276.281006 79.025597 277.682007 81.601601 C 279.083008 84.132401 279.783997 87.002197 279.783997 90.210899 L 279.783997 94.3461 L 252.938995 94.3461 C 253.662003 98.503899 257.549011 100.583 264.598999 100.583 C 266.678009 100.583 268.825012 100.402 271.039001 100.040001 C 273.252991 99.678902 275.174011 99.181702 276.800995 98.549004 L 276.800995 105.735001 C 275.218994 106.413002 273.186005 106.955002 270.700012 107.362 C 268.213989 107.767998 265.729004 107.972 263.243011 107.972 Z M 270.089996 87.702698 C 269.95401 85.533401 269.140991 83.861298 267.649994 82.686302 C 266.15799 81.466003 264.10199 80.855904 261.480988 80.855904 C 258.904999 80.855904 256.871002 81.466003 255.380005 82.686302 C 253.888 83.906502 253.074997 85.578598 252.938995 87.702698 L 270.089996 87.702698 Z"/>
    <path id="path4" fill="#aeaeae" stroke="none" d="M 282.056 74.415901 L 291.953003 74.415901 L 291.953003 78.415497 C 293.445007 76.743401 295.207001 75.500603 297.240997 74.687103 C 299.320007 73.8284 301.489014 73.399101 303.748993 73.399101 C 308.178009 73.399101 311.47699 74.596703 313.645996 76.991898 C 315.859985 79.342003 316.967987 82.528099 316.967987 86.550301 L 316.967987 106.955002 L 306.730988 106.955002 L 306.730988 87.702698 C 306.730988 83.499702 304.787994 81.3983 300.901001 81.3983 C 299.18399 81.3983 297.579987 81.827599 296.088013 82.686302 C 294.596985 83.499702 293.332001 84.720001 292.291992 86.346901 L 292.291992 106.955002 L 282.056 106.955002 L 282.056 74.415901 Z"/>
    <path id="path5" fill="#aeaeae" stroke="none" d="M 325.998993 69.399498 C 324.417999 69.399498 323.084991 68.879799 322 67.840302 C 320.915009 66.800903 320.372986 65.490303 320.372986 63.908501 C 320.372986 62.372002 320.915009 61.084 322 60.044495 C 323.084991 58.9599 324.417999 58.417603 325.998993 58.417603 C 327.580994 58.417603 328.914001 58.9599 329.998993 60.044495 C 331.084015 61.084 331.626007 62.372002 331.626007 63.908501 C 331.626007 65.490303 331.084015 66.800903 329.998993 67.840302 C 328.914001 68.879799 327.580994 69.399498 325.998993 69.399498 Z M 320.846985 74.415901 L 331.152008 74.415901 L 331.152008 106.955002 L 320.846985 106.955002 L 320.846985 74.415901 Z"/>
    <path id="path6" fill="#aeaeae" stroke="none" d="M 348.609009 107.972 C 346.169006 107.972 343.548004 107.700996 340.746002 107.157997 C 337.989014 106.661003 335.820007 105.938004 334.238007 104.988998 L 334.238007 96.989899 C 336.04599 98.074501 338.214996 98.955803 340.746002 99.633698 C 343.277008 100.311996 345.627014 100.651001 347.79599 100.651001 C 349.648987 100.651001 351.005005 100.491997 351.863007 100.176003 C 352.721985 99.859596 353.151001 99.272102 353.151001 98.413498 C 353.151001 97.735603 352.903015 97.193298 352.406006 96.786499 C 351.908997 96.334602 351.140015 95.950401 350.101013 95.634102 C 349.106995 95.272499 347.43399 94.7528 345.084015 94.074898 C 342.328003 93.261497 340.15799 92.447998 338.576996 91.634499 C 337.040009 90.775803 335.86499 89.713799 335.052002 88.448402 C 334.28299 87.182999 333.898987 85.556 333.898987 83.567497 C 333.898987 80.178001 335.231995 77.647202 337.898987 75.975098 C 340.609985 74.257698 344.270996 73.399101 348.881012 73.399101 C 351.140015 73.399101 353.467987 73.647598 355.863007 74.144798 C 358.303009 74.596703 360.178986 75.206802 361.48999 75.975098 L 361.48999 83.770897 C 360.178986 82.912201 358.462006 82.2117 356.337006 81.669403 C 354.259003 81.127098 352.225006 80.855904 350.235992 80.855904 C 348.382996 80.855904 346.937012 81.036697 345.89801 81.3983 C 344.903992 81.759804 344.406006 82.437698 344.406006 83.4319 C 344.406006 84.290604 344.881012 84.9459 345.829987 85.397903 C 346.824005 85.8498 348.654999 86.414703 351.321014 87.092598 L 352.677002 87.431503 C 355.523987 88.199799 357.738007 89.058502 359.320007 90.0075 C 360.902008 90.9114 362.009003 92.0186 362.641998 93.329201 C 363.320007 94.594597 363.658997 96.198997 363.658997 98.142303 C 363.658997 101.125 362.371002 103.519997 359.795013 105.328003 C 357.218994 107.091003 353.48999 107.972 348.609009 107.972 Z"/>
    <path id="path7" fill="#aeaeae" stroke="none" d="M 366.024994 56.858398 L 376.260986 56.858398 L 376.260986 78.144402 C 377.798004 76.562599 379.537994 75.387604 381.480988 74.619301 C 383.424011 73.805801 385.502991 73.399101 387.717987 73.399101 C 392.147003 73.399101 395.446014 74.596703 397.61499 76.991898 C 399.82901 79.342003 400.937012 82.528099 400.937012 86.550301 L 400.937012 106.955002 L 390.700989 106.955002 L 390.700989 87.702698 C 390.700989 83.499702 388.756989 81.3983 384.871002 81.3983 C 383.153015 81.3983 381.549011 81.827599 380.058014 82.686302 C 378.56601 83.499702 377.300995 84.720001 376.260986 86.346901 L 376.260986 106.955002 L 366.024994 106.955002 L 366.024994 56.858398 Z"/>
    <path id="path8" fill="#aeaeae" fill-rule="evenodd" stroke="none" d="M 102.005997 66.449997 C 102.005997 75.060997 95.025902 82.041603 86.414902 82.041603 C 77.803802 82.041603 70.823196 75.060997 70.823196 66.449997 C 70.823196 57.839005 77.803802 50.858398 86.414902 50.858398 C 95.025902 50.858398 102.005997 57.839005 102.005997 66.449997 Z M 50.147499 80.908501 C 67.134201 79.763496 81.938599 92.4814 83.317596 109.503998 C 83.460503 111.267998 83.453598 113.010002 83.307701 114.716003 C 66.320999 115.861 51.516602 103.142998 50.1376 86.120598 C 49.994801 84.356697 50.001598 82.615097 50.147499 80.908501 Z M 94.298401 114.120003 C 111.320999 112.740997 124.039001 97.936897 122.893997 80.950203 C 121.186996 80.804298 119.445999 80.797501 117.681999 80.940399 C 100.658997 82.319298 87.941299 97.123703 89.086304 114.110001 C 90.7929 114.255997 92.534401 114.263 94.298401 114.120003 Z"/>
</svg>
