<?xml version="1.0" encoding="UTF-8"?>
<!-- Generated by Pixelmator Pro 3.3.2 -->
<svg width="678" height="231" viewBox="0 0 678 231" xmlns="http://www.w3.org/2000/svg" xmlns:xlink="http://www.w3.org/1999/xlink">
    <path id="Path" fill="#aeaeae" stroke="none" d="M 206.274994 157.903 L 212.759995 156.281006 L 212.759995 87.115204 L 206.274994 85.49411 L 206.274994 83.873001 L 235.455002 83.873001 C 246.406006 83.873001 254.440002 85.638199 259.554993 89.16861 C 264.743011 92.626892 267.335999 97.165894 267.335999 102.786011 C 267.335999 106.676003 266.218994 109.809998 263.985992 112.188004 C 261.752991 114.566002 258.907013 116.331001 255.447998 117.484001 C 251.774002 118.779999 247.811005 119.464996 243.559998 119.537003 L 243.559998 120.077003 C 248.820007 120.292999 253.395004 121.085999 257.286011 122.455002 C 261.247986 123.751999 264.526001 125.768997 267.119995 128.507004 C 269.786011 131.244995 271.118988 134.738998 271.118988 138.990005 C 271.118988 145.401993 268.489014 150.445999 263.229004 154.119995 C 257.970001 157.722 249.432007 159.524002 237.615997 159.524002 L 206.274994 159.524002 L 206.274994 157.903 Z M 235.455002 118.456001 C 237.832993 118.456001 240.029999 117.807999 242.046997 116.511002 C 244.136993 115.141998 245.794006 113.268997 247.018997 110.890999 C 248.315994 108.441002 248.964005 105.739998 248.964005 102.786011 C 248.964005 99.615601 248.315994 96.805695 247.018997 94.35611 C 245.794006 91.906403 244.136993 89.997101 242.046997 88.628204 C 240.029999 87.259308 237.832993 86.57489 235.455002 86.57489 L 230.591995 86.57489 L 230.591995 118.456001 L 235.455002 118.456001 Z M 237.615997 156.822006 C 242.082993 156.822006 245.722 155.237 248.531998 152.067001 C 251.341995 148.897003 252.746002 144.537994 252.746002 138.990005 C 252.746002 133.442001 251.341995 129.082993 248.531998 125.913002 C 245.722 122.742996 242.082993 121.157997 237.615997 121.157997 L 230.591995 121.157997 L 230.591995 156.822006 L 237.615997 156.822006 Z"/>
    <path id="path1" fill="#aeaeae" stroke="none" d="M 273.246002 157.903 L 279.730988 156.281006 L 279.730988 87.115204 L 273.246002 85.49411 L 273.246002 83.873001 L 287.29599 83.873001 C 293.779999 83.873001 297.022003 87.115204 297.022003 93.599609 L 297.022003 156.281006 L 303.506989 157.903 L 303.506989 159.524002 L 273.246002 159.524002 L 273.246002 157.903 Z"/>
    <path id="path2" fill="#aeaeae" stroke="none" d="M 333.209991 161.145004 C 324.276001 161.145004 317.251007 158.623001 312.135986 153.580002 C 307.09201 148.464005 304.571014 141.440002 304.571014 132.505997 C 304.571014 123.571999 307.09201 116.583 312.135986 111.540001 C 317.251007 106.424004 324.276001 103.865997 333.209991 103.865997 C 342.144012 103.865997 349.131989 106.424004 354.175995 111.540001 C 359.290985 116.583 361.848999 123.571999 361.848999 132.505997 C 361.848999 141.440002 359.290985 148.464005 354.175995 153.580002 C 349.131989 158.623001 342.144012 161.145004 333.209991 161.145004 Z M 333.209991 158.983002 C 336.09201 158.983002 338.505005 156.966003 340.450989 152.931 C 342.467987 148.897003 343.47699 142.087997 343.47699 132.505997 C 343.47699 122.922997 342.467987 116.114998 340.450989 112.080002 C 338.505005 108.044998 336.09201 106.028 333.209991 106.028 C 330.328003 106.028 327.877991 108.044998 325.860992 112.080002 C 323.915009 116.114998 322.942993 122.922997 322.942993 132.505997 C 322.942993 142.087997 323.915009 148.897003 325.860992 152.931 C 327.877991 156.966003 330.328003 158.983002 333.209991 158.983002 Z"/>
    <path id="path3" fill="#aeaeae" stroke="none" d="M 390.526001 161.145004 C 386.05899 161.145004 382.059998 160.171997 378.529999 158.227005 C 376.800995 157.289993 375.395996 156.281998 374.315002 155.201004 C 373.161987 156.785995 371.902008 158.011002 370.53299 158.875 C 369.884003 159.307999 369.164001 159.703995 368.371002 160.063995 L 365.669006 160.063995 L 365.669006 141.692001 L 369.992004 141.692001 C 370.928986 144.718002 372.298004 147.528 374.098999 150.121002 C 377.917999 155.669006 382.673004 158.442993 388.36499 158.442993 C 391.390991 158.442993 393.660004 157.722 395.173004 156.281006 C 396.757996 154.768005 397.550995 152.606995 397.550995 149.796997 C 397.550995 147.419998 396.470001 145.438004 394.30899 143.852997 C 392.218994 142.195999 388.904999 140.179001 384.365997 137.800995 C 380.475006 135.856003 377.304993 134.126999 374.855988 132.613998 C 372.477997 131.029007 370.424988 129.082993 368.695007 126.778 C 367.037994 124.400002 366.209991 121.625999 366.209991 118.456001 C 366.209991 114.133003 368.046997 110.639 371.721008 107.973 C 375.467987 105.235001 381.196014 103.865997 388.904999 103.865997 C 392.722992 103.865997 396.253998 104.875 399.496002 106.891998 C 401.080994 107.829002 402.450012 108.802002 403.602997 109.809998 C 404.539001 108.514 405.799988 107.289001 407.38501 106.136002 C 408.609985 105.415001 409.330994 105.018997 409.546997 104.946999 L 412.248993 104.946999 L 412.248993 123.319 L 407.925995 123.319 C 406.845001 120.221001 405.511993 117.447998 403.927002 114.998001 C 400.325012 109.377998 396.037994 106.568001 391.06601 106.568001 C 389.121002 106.568001 387.463989 107.289001 386.095001 108.730003 C 384.726013 110.170998 384.041992 111.972 384.041992 114.133003 C 384.041992 116.871002 385.194 119.177002 387.5 121.050003 C 389.806 122.850998 393.299988 124.941002 397.983002 127.318001 C 401.802002 129.263 404.828003 130.992996 407.061005 132.505997 C 409.367004 133.947006 411.312012 135.748001 412.897003 137.908997 C 414.553986 140.070999 415.382996 142.591995 415.382996 145.473999 C 415.382996 155.921005 407.096985 161.145004 390.526001 161.145004 Z"/>
    <path id="path4" fill="#aeaeae" stroke="none" d="M 443.485992 161.145004 C 439.019012 161.145004 435.019989 160.171997 431.48999 158.227005 C 429.76001 157.289993 428.355988 156.281998 427.274994 155.201004 C 426.122009 156.785995 424.860992 158.011002 423.492004 158.875 C 422.843994 159.307999 422.122986 159.703995 421.330994 160.063995 L 418.628998 160.063995 L 418.628998 141.692001 L 422.951996 141.692001 C 423.889008 144.718002 425.256989 147.528 427.05899 150.121002 C 430.877014 155.669006 435.631989 158.442993 441.324005 158.442993 C 444.350006 158.442993 446.619995 157.722 448.132996 156.281006 C 449.717987 154.768005 450.51001 152.606995 450.51001 149.796997 C 450.51001 147.419998 449.429993 145.438004 447.268005 143.852997 C 445.178986 142.195999 441.86499 140.179001 437.325989 137.800995 C 433.434998 135.856003 430.265015 134.126999 427.815002 132.613998 C 425.437988 131.029007 423.384003 129.082993 421.654999 126.778 C 419.997986 124.400002 419.169006 121.625999 419.169006 118.456001 C 419.169006 114.133003 421.006989 110.639 424.681 107.973 C 428.428009 105.235001 434.154999 103.865997 441.86499 103.865997 C 445.683014 103.865997 449.213013 104.875 452.455994 106.891998 C 454.040985 107.829002 455.410004 108.802002 456.562012 109.809998 C 457.498993 108.514 458.76001 107.289001 460.345001 106.136002 C 461.570007 105.415001 462.290009 105.018997 462.506012 104.946999 L 465.208008 104.946999 L 465.208008 123.319 L 460.88501 123.319 C 459.804993 120.221001 458.471985 117.447998 456.886993 114.998001 C 453.283997 109.377998 448.997009 106.568001 444.026001 106.568001 C 442.080994 106.568001 440.424011 107.289001 439.054993 108.730003 C 437.686005 110.170998 437.001007 111.972 437.001007 114.133003 C 437.001007 116.871002 438.153992 119.177002 440.459991 121.050003 C 442.765015 122.850998 446.26001 124.941002 450.942993 127.318001 C 454.760986 129.263 457.786987 130.992996 460.020996 132.505997 C 462.325989 133.947006 464.272003 135.748001 465.856995 137.908997 C 467.514008 140.070999 468.34201 142.591995 468.34201 145.473999 C 468.34201 155.921005 460.057007 161.145004 443.485992 161.145004 Z"/>
    <path id="path5" fill="#aeaeae" stroke="none" d="M 499.687012 161.145004 C 490.752991 161.145004 483.729004 158.623001 478.613007 153.580002 C 473.570007 148.464005 471.048004 141.440002 471.048004 132.505997 C 471.048004 123.571999 473.570007 116.583 478.613007 111.540001 C 483.729004 106.424004 490.752991 103.865997 499.687012 103.865997 C 508.621002 103.865997 515.609985 106.424004 520.653015 111.540001 C 525.768982 116.583 528.327026 123.571999 528.327026 132.505997 C 528.327026 141.440002 525.768982 148.464005 520.653015 153.580002 C 515.609985 158.623001 508.621002 161.145004 499.687012 161.145004 Z M 499.687012 158.983002 C 502.569 158.983002 504.983002 156.966003 506.928009 152.931 C 508.946014 148.897003 509.95401 142.087997 509.95401 132.505997 C 509.95401 122.922997 508.946014 116.114998 506.928009 112.080002 C 504.983002 108.044998 502.569 106.028 499.687012 106.028 C 496.806 106.028 494.355988 108.044998 492.338989 112.080002 C 490.393005 116.114998 489.42099 122.922997 489.42099 132.505997 C 489.42099 142.087997 490.393005 148.897003 492.338989 152.931 C 494.355988 156.966003 496.806 158.983002 499.687012 158.983002 Z"/>
    <path id="path6" fill="#aeaeae" stroke="none" d="M 531.606995 157.903 L 538.091003 156.281006 L 538.091003 108.730003 L 531.606995 107.109001 L 531.606995 105.487999 L 541.333008 105.487999 C 545.583984 105.487999 548.934021 106.856003 551.383972 109.594002 C 552.320984 110.675003 553.112976 112.008003 553.762024 113.593002 C 554.84198 111.575996 555.994995 109.954002 557.219971 108.730003 C 560.461975 105.487999 564.172974 103.865997 568.351013 103.865997 C 572.530029 103.865997 576.205017 104.803001 579.375 106.676003 C 582.544983 108.477997 584.994019 110.962997 586.723999 114.133003 C 587.804016 112.043999 588.95697 110.350998 590.182007 109.054001 C 593.495972 105.596001 597.20697 103.865997 601.312988 103.865997 C 605.132019 103.865997 608.554016 104.658997 611.580017 106.244003 C 614.677979 107.829002 617.05603 109.990997 618.713013 112.727997 C 620.442017 115.466003 621.307007 118.456001 621.307007 121.697998 L 621.307007 156.281006 L 627.791016 157.903 L 627.791016 159.524002 L 613.742004 159.524002 C 607.257019 159.524002 604.015015 156.281006 604.015015 149.796997 L 604.015015 121.697998 C 604.015015 117.014999 603.294983 113.521004 601.854004 111.214996 C 600.413025 108.837997 598.791992 107.649002 596.991028 107.649002 C 594.901001 107.649002 592.776001 109.089996 590.614014 111.972 C 589.75 113.341003 588.992981 114.781998 588.344971 116.294998 L 588.344971 156.281006 L 594.828979 157.903 L 594.828979 159.524002 L 564.56897 159.524002 L 564.56897 157.903 L 571.052979 156.281006 L 571.052979 121.697998 C 571.052979 117.014999 570.333008 113.521004 568.892029 111.214996 C 567.450989 108.837997 565.830017 107.649002 564.028015 107.649002 C 561.939026 107.649002 559.814026 109.089996 557.651978 111.972 C 556.788025 113.341003 556.031006 114.781998 555.382996 116.294998 L 555.382996 156.281006 L 561.867004 157.903 L 561.867004 159.524002 L 531.606995 159.524002 L 531.606995 157.903 Z"/>
    <path id="path7" fill="#aeaeae" fill-rule="evenodd" stroke="none" d="M 118.308998 180.158997 C 117.612 180.296997 116.889 180.341995 116.155998 180.287003 C 93.518303 178.569 72.091103 166.065002 59.882801 144.919006 C 47.674301 123.774002 47.558998 98.964401 57.390999 78.500198 C 58.818401 75.529205 61.912701 73.742706 65.199402 73.992096 C 73.635498 74.632202 81.903503 76.770294 89.588997 80.295197 C 95.3881 68.987701 103.968002 59.341492 114.426003 52.259201 C 117.154999 50.410995 120.724998 50.410995 123.454002 52.259201 C 133.770004 59.2453 142.257996 68.726196 148.052994 79.83551 C 155.447006 76.584 163.356003 74.603897 171.419006 73.992096 C 174.705994 73.742706 177.800003 75.529205 179.227005 78.500198 C 189.059006 98.964401 188.944 123.774002 176.735992 144.919006 C 164.526993 166.065002 143.100006 178.569 120.461998 180.287003 C 119.728996 180.341995 119.005997 180.296997 118.308998 180.158997 Z M 134.895004 167.341003 C 148.464996 162.725998 160.466995 153.360001 168.188995 139.985001 C 178.468002 122.181 178.802994 101.363007 170.878998 83.943298 C 164.373001 84.574493 158.003998 86.238602 152.029999 88.865997 C 154.944 96.882904 156.533997 105.536003 156.533997 114.559998 C 156.533997 135.126999 148.276001 153.766006 134.895004 167.341003 Z M 139.315994 84.424301 C 134.475006 75.130203 127.460999 67.1436 118.940002 61.134705 C 110.236 67.272308 103.105003 75.473206 98.255402 85.023193 C 105.973999 89.959106 112.831001 96.452103 118.308998 104.363998 C 124.012001 96.127899 131.209 89.429398 139.315994 84.424301 Z M 123.900002 113.934998 C 128.858994 105.476997 135.537003 98.64209 143.238998 93.621399 C 145.462006 100.195007 146.666 107.237 146.666 114.559998 C 146.666 131.466003 140.248001 146.875 129.697006 158.481995 C 132.552002 143.820007 130.824997 128.203995 123.900002 113.934998 Z M 112.718002 113.934998 C 107.983002 105.857002 101.678001 99.26001 94.411903 94.309692 C 92.335403 100.686005 91.2136 107.491997 91.2136 114.559998 C 91.2136 130.598999 96.989998 145.291 106.592003 156.667007 C 104.218002 142.537003 106.078003 127.616997 112.718002 113.934998 Z M 118.308998 163.304993 C 122.014 151.524994 122.166 138.673004 118.308998 126.489998 C 114.452003 138.673004 114.605003 151.524994 118.308998 163.304993 Z M 68.429001 139.985001 C 76.501999 153.968002 89.2528 163.569 103.582001 167.940002 C 89.849403 154.317001 81.345299 135.432007 81.345299 114.559998 C 81.345299 105.719002 82.871201 97.234894 85.673897 89.355804 C 79.387497 86.444702 72.641098 84.6129 65.738998 83.943298 C 57.815399 101.363007 58.150101 122.181 68.429001 139.985001 Z"/>
</svg>
