<?xml version="1.0" encoding="UTF-8"?>
<!-- Generated by Pixelmator Pro 3.3.2 -->
<svg width="364" height="130" viewBox="0 0 364 130" xmlns="http://www.w3.org/2000/svg" xmlns:xlink="http://www.w3.org/1999/xlink">
    <path id="Path" fill="#aeaeae" stroke="none" d="M 165.080002 91.092003 C 160.615005 91.092003 156.781006 90.302803 153.578995 88.724197 C 150.376999 87.145699 147.761002 85.093597 145.731003 82.567902 C 143.746994 80.042198 142.281006 77.291 141.334 74.314301 C 140.386993 71.3377 139.912994 68.473701 139.912994 65.722504 L 139.912994 64.2342 C 139.912994 61.167297 140.386993 58.1455 141.334 55.1688 C 142.326004 52.192101 143.837006 49.486099 145.865997 47.050598 C 147.895996 44.615097 150.466995 42.675797 153.578995 41.232498 C 156.735992 39.744202 160.457001 39 164.740997 39 C 169.205994 39 173.085007 39.811798 176.378006 41.435501 C 179.714996 43.014 182.376007 45.269104 184.360001 48.200699 C 186.345001 51.087204 187.539993 54.469803 187.945999 58.348495 L 178.272003 58.348495 C 177.910995 56.093399 177.098999 54.199097 175.835999 52.665695 C 174.619003 51.087204 173.063004 49.914505 171.167999 49.147797 C 169.274002 48.335999 167.132004 47.930099 164.740997 47.930099 C 162.306 47.930099 160.141006 48.358505 158.246994 49.2155 C 156.352997 50.027298 154.774002 51.199905 153.511002 52.733398 C 152.248001 54.2668 151.279007 56.0709 150.602005 58.1455 C 149.970993 60.2202 149.654999 62.520302 149.654999 65.045998 C 149.654999 67.481499 149.970993 69.736603 150.602005 71.811203 C 151.279007 73.885902 152.270996 75.712502 153.578995 77.291 C 154.886993 78.824501 156.488007 80.019699 158.382004 80.876602 C 160.320999 81.733498 162.554001 82.162003 165.080002 82.162003 C 168.778 82.162003 171.889999 81.259903 174.416 79.455902 C 176.985992 77.606697 178.542007 75.036003 179.084 71.743599 L 188.757996 71.743599 C 188.307007 75.261497 187.112 78.486198 185.171997 81.417801 C 183.233002 84.349403 180.572006 86.694603 177.188995 88.453598 C 173.807007 90.212601 169.770004 91.092003 165.080002 91.092003 Z"/>
    <path id="path1" fill="#aeaeae" stroke="none" d="M 193.210999 89.806602 L 193.210999 40.4207 L 202.615005 40.4207 L 202.615005 89.806602 L 193.210999 89.806602 Z M 188.610992 47.456497 L 188.610992 40.4207 L 202.615005 40.4207 L 202.615005 47.456497 L 188.610992 47.456497 Z"/>
    <path id="path2" fill="#aeaeae" stroke="none" d="M 227.625 91.092003 C 224.378006 91.092003 221.514008 90.573402 219.033005 89.536003 C 216.552994 88.498703 214.455002 87.100601 212.742004 85.341599 C 211.028 83.537598 209.720001 81.508003 208.817993 79.252899 C 207.960999 76.997902 207.531998 74.652603 207.531998 72.217102 L 207.531998 70.796402 C 207.531998 68.270798 207.983002 65.880402 208.884995 63.625305 C 209.832001 61.325195 211.162994 59.295601 212.876999 57.536598 C 214.636002 55.732605 216.755997 54.334503 219.235992 53.342201 C 221.716995 52.304901 224.513 51.786201 227.625 51.786201 C 230.737 51.786201 233.533005 52.304901 236.014008 53.342201 C 238.494003 54.334503 240.591995 55.732605 242.304993 57.536598 C 244.063995 59.295601 245.395004 61.325195 246.296997 63.625305 C 247.199005 65.880402 247.649994 68.270798 247.649994 70.796402 L 247.649994 72.217102 C 247.649994 74.652603 247.199005 76.997902 246.296997 79.252899 C 245.440002 81.508003 244.154999 83.537598 242.440994 85.341599 C 240.727005 87.100601 238.630005 88.498703 236.149002 89.536003 C 233.669006 90.573402 230.826996 91.092003 227.625 91.092003 Z M 227.625 83.041397 C 229.925003 83.041397 231.863998 82.545303 233.442993 81.553101 C 235.022003 80.5158 236.216995 79.140198 237.029007 77.4263 C 237.839996 75.667397 238.246002 73.682899 238.246002 71.473 C 238.246002 69.217903 237.817993 67.233398 236.960999 65.5196 C 236.149002 63.760605 234.931 62.384995 233.307999 61.392799 C 231.729004 60.355499 229.835007 59.8368 227.625 59.8368 C 225.414993 59.8368 223.498001 60.355499 221.875 61.392799 C 220.296005 62.384995 219.078003 63.760605 218.220993 65.5196 C 217.363998 67.233398 216.936005 69.217903 216.936005 71.473 C 216.936005 73.682899 217.341995 75.667397 218.154007 77.4263 C 219.011002 79.140198 220.227997 80.5158 221.807007 81.553101 C 223.384995 82.545303 225.324997 83.041397 227.625 83.041397 Z"/>
    <path id="path3" fill="#aeaeae" stroke="none" d="M 265.016998 90.956703 C 260.777008 90.956703 257.484985 89.558601 255.139999 86.762299 C 252.839996 83.966003 251.688995 79.816704 251.688995 74.314301 L 251.688995 53.003998 L 261.092987 53.003998 L 261.092987 75.126198 C 261.092987 77.381203 261.725006 79.185303 262.987 80.5383 C 264.25 81.846298 265.963989 82.500198 268.128998 82.500198 C 270.294006 82.500198 272.053009 81.801201 273.406006 80.403 C 274.803986 79.004898 275.502991 77.110603 275.502991 74.720299 L 275.502991 53.003998 L 284.907013 53.003998 L 284.907013 89.806602 L 277.464996 89.806602 L 277.464996 74.179001 L 278.209015 74.179001 C 278.209015 77.877296 277.735992 80.966797 276.787994 83.447403 C 275.841003 85.927902 274.42099 87.799599 272.526001 89.0625 C 270.631989 90.325302 268.264008 90.956703 265.423004 90.956703 L 265.016998 90.956703 Z"/>
    <path id="path4" fill="#aeaeae" stroke="none" d="M 307.548004 91.024399 C 304.97699 91.024399 302.609009 90.550797 300.444 89.603699 C 298.279999 88.656601 296.40799 87.326103 294.82901 85.612198 C 293.251007 83.898399 292.03299 81.913902 291.175995 79.658798 C 290.319 77.358704 289.890991 74.878098 289.890991 72.217102 L 289.890991 70.796402 C 289.890991 68.180603 290.296997 65.722504 291.108002 63.422401 C 291.964996 61.1222 293.138 59.115204 294.626007 57.401299 C 296.160004 55.6875 297.985992 54.356995 300.105988 53.409897 C 302.270996 52.417603 304.661011 51.921501 307.277008 51.921501 C 310.164001 51.921501 312.688995 52.553001 314.854004 53.815796 C 317.063995 55.033501 318.822998 56.882706 320.131012 59.363297 C 321.438995 61.843796 322.161011 64.955803 322.29599 68.699203 L 319.522003 65.451897 L 319.522003 40.4207 L 328.925995 40.4207 L 328.925995 89.806602 L 321.484009 89.806602 L 321.484009 74.179001 L 323.108002 74.179001 C 322.971985 77.922401 322.205994 81.056999 320.808014 83.582703 C 319.408997 86.063202 317.559998 87.934898 315.26001 89.1978 C 313.005005 90.415497 310.43399 91.024399 307.548004 91.024399 Z M 309.644989 83.1091 C 311.493988 83.1091 313.186005 82.703201 314.718994 81.891403 C 316.252014 81.034401 317.470001 79.816704 318.372009 78.238197 C 319.319 76.614502 319.792999 74.7202 319.792999 72.555397 L 319.792999 69.849297 C 319.792999 67.684402 319.319 65.880402 318.372009 64.437103 C 317.424988 62.948799 316.184998 61.821304 314.651001 61.054596 C 313.118011 60.242699 311.449005 59.8368 309.644989 59.8368 C 307.61499 59.8368 305.811005 60.332901 304.233002 61.325195 C 302.699005 62.272301 301.481995 63.625305 300.579987 65.3843 C 299.722992 67.143204 299.294006 69.195297 299.294006 71.540604 C 299.294006 73.885902 299.744995 75.938004 300.647003 77.696899 C 301.549011 79.410797 302.766998 80.741302 304.300995 81.6884 C 305.878998 82.635498 307.661011 83.1091 309.644989 83.1091 Z"/>
    <path id="path5" fill="#aeaeae" stroke="none" d="M 104.484001 95 C 101.235001 95 99.233398 93.5 95.962898 91.733398 C 92.692398 89.966797 83.233398 82.853996 83.233398 74 C 83.233398 67.993698 81.685097 63.135696 79.048302 59.264198 C 76.431198 55.422401 72.885696 52.760696 69.197304 50.881805 C 67.419899 49.976601 65.570297 49.236298 63.7285 48.624496 C 62.6548 48.268097 62.0317 47.115204 62.497601 46.084503 C 65.450203 39.547897 72.025902 35 79.664597 35 C 90.0625 35 98.492203 43.429199 98.492203 53.827599 C 98.492203 56.0522 98.1064 58.186996 97.397903 60.167999 C 100.399002 58.1455 104.014999 56.965302 107.905998 56.965302 C 118.304001 56.965302 126.733002 65.394501 126.733002 75.792999 C 126.733002 88.310997 115.733002 95 104.484001 95 Z"/>
    <path id="path6" fill="#aeaeae" stroke="none" d="M 35.733398 74.224098 C 35.733398 84.148399 42.276402 92.417503 50.944302 94.244598 C 52.2822 94.733398 53.726601 95 55.233398 95 L 84.485802 95 C 85.466797 95 85.893997 93.688004 85.144997 93.054199 C 80.0327 88.7285 76.233398 82.632301 76.233398 74 C 76.233398 69.256798 75.032204 65.8022 73.262703 63.205101 C 71.473099 60.578094 68.9561 58.6147 66.019997 57.118698 C 63.056599 55.609406 59.839401 54.647903 56.767101 53.966301 C 56.043499 53.875 55.307098 53.827599 54.561001 53.827599 C 44.162601 53.827599 35.733398 62.959503 35.733398 74.224098 Z"/>
</svg>
