<?xml version="1.0" encoding="UTF-8"?>
<svg width="32px" height="35px" viewBox="0 0 32 35" version="1.1" xmlns="http://www.w3.org/2000/svg" xmlns:xlink="http://www.w3.org/1999/xlink">
    <title>Menegment</title>
    <g id="Page-1" stroke="none" stroke-width="1" fill="none" fill-rule="evenodd">
        <g id="7992" transform="translate(-805.000000, -671.000000)" fill="#FCBA30">
            <path d="M835.026,703.871 L806.416,703.871 L806.416,694.295 C808.152,688.504 814.4,689.354 815.87,689.641 L820.104,697.966 C820.221,698.198 820.459,698.345 820.72,698.345 L820.721,698.345 C820.981,698.345 821.219,698.2 821.338,697.969 L825.545,689.791 C828.973,689.516 831.556,690.094 833.225,691.509 C834.826,692.867 835.011,694.532 835.026,694.714 L835.026,703.871 Z M819.497,691.328 L819.084,692.902 L817.287,689.367 C817.742,689.543 818.214,689.685 818.701,689.785 C818.683,689.874 818.673,689.967 818.673,690.061 C818.673,690.625 819.012,691.11 819.497,691.328 Z M822.033,691.28 C822.47,691.045 822.77,690.59 822.77,690.061 C822.77,689.94 822.75,689.825 822.72,689.714 C823.271,689.58 823.801,689.396 824.307,689.166 L822.608,692.468 L822.033,691.28 Z M819.597,690.061 C819.597,689.804 819.806,689.595 820.063,689.595 L821.379,689.595 C821.636,689.595 821.845,689.804 821.845,690.061 C821.845,690.318 821.636,690.527 821.379,690.527 L820.063,690.527 C819.806,690.527 819.597,690.318 819.597,690.061 Z M820.42,691.451 L821.089,691.451 L822.08,693.496 L820.725,696.129 L819.715,694.143 L820.42,691.451 Z M812.731,680.845 C812.731,676.529 816.241,673.019 820.557,673.019 C824.872,673.019 828.383,676.529 828.383,680.845 C828.383,685.147 824.893,688.649 820.594,688.67 L820.519,688.67 C816.221,688.649 812.731,685.147 812.731,680.845 Z M834.152,690.479 C832.238,688.836 829.393,688.136 825.69,688.391 C828.101,686.746 829.687,683.978 829.687,680.845 C829.687,675.811 825.591,671.715 820.557,671.715 C815.522,671.715 811.426,675.811 811.426,680.845 C811.426,683.822 812.859,686.471 815.07,688.138 C812.396,687.874 806.766,688.07 805.056,694.003 C805.039,694.065 805.029,694.13 805.029,694.195 L805.029,704.564 C805.029,704.947 805.34,705.258 805.723,705.258 L835.72,705.258 C836.103,705.258 836.413,704.947 836.413,704.564 L836.413,694.688 C836.413,694.676 836.413,694.663 836.412,694.649 C836.406,694.554 836.255,692.282 834.152,690.479 L834.152,690.479 Z" id="Menegment"></path>
        </g>
    </g>
</svg>