<svg width="86" height="66" viewBox="0 0 86 66" fill="none" xmlns="http://www.w3.org/2000/svg">
<g clip-path="url(#clip0_20_39)">
<path d="M39.3011 0V18.8836C39.3011 24.3142 38.253 29.9607 36.157 35.8233C34.1226 41.6241 31.3176 47.1781 27.7419 52.4853C24.1663 57.7307 20.0975 62.2356 15.5355 66L0 55.9102C3.39068 50.7882 6.34982 45.2651 8.87742 39.3408C11.405 33.3548 12.6688 26.5975 12.6688 19.0687V0H39.3011ZM86 0V18.8836C86 24.3142 84.952 29.9607 82.8559 35.8233C80.8215 41.6241 78.0165 47.1781 74.4409 52.4853C70.8652 57.7307 66.8272 62.2356 62.3269 66L46.7914 55.9102C50.1204 50.7882 53.0487 45.2651 55.5763 39.3408C58.1039 33.3548 59.3677 26.5975 59.3677 19.0687V0H86Z" fill="#FFC157"/>
</g>
<defs>
<clipPath id="clip0_20_39">
<rect width="86" height="66" fill="white"/>
</clipPath>
</defs>
</svg>
