<?xml version="1.0" encoding="UTF-8"?>
<svg width="23px" height="37px" viewBox="0 0 23 37" version="1.1" xmlns="http://www.w3.org/2000/svg" xmlns:xlink="http://www.w3.org/1999/xlink">
    <title>Serving</title>
    <g id="Page-1" stroke="none" stroke-width="1" fill="none" fill-rule="evenodd">
        <g id="7992" transform="translate(-164.000000, -865.000000)" fill="#FCBA30">
            <g id="Serving" transform="translate(164.504000, 865.461000)">
                <path d="M19.225,12.696 C19.22,12.717 19.215,12.738 19.212,12.76 C18.957,14.312 18.604,15.593 18.191,16.461 C17.143,18.66 12.364,26.512 10.558,29.462 C8.75,26.512 3.971,18.66 2.923,16.461 C2.51,15.593 2.158,14.312 1.903,12.76 C1.899,12.738 1.895,12.718 1.891,12.696 C1.718,11.996 1.63,11.276 1.63,10.558 C1.63,5.636 5.635,1.631 10.558,1.631 C15.48,1.631 19.484,5.636 19.484,10.558 C19.484,11.276 19.397,11.996 19.225,12.696 Z M14.59,32.42 C14.48,32.728 13.117,33.503 10.558,33.503 C7.968,33.503 6.603,32.71 6.521,32.43 C6.595,32.159 7.707,31.494 9.81,31.361 C9.835,31.401 9.853,31.432 9.863,31.447 C10.012,31.688 10.275,31.835 10.558,31.835 C10.84,31.835 11.103,31.688 11.251,31.447 C11.261,31.432 11.28,31.401 11.304,31.361 C13.38,31.492 14.492,32.143 14.59,32.42 Z M20.815,13.055 C21.014,12.236 21.115,11.396 21.115,10.558 C21.115,4.736 16.379,1.42108547e-14 10.558,1.42108547e-14 C4.736,1.42108547e-14 0,4.736 0,10.558 C0,11.396 0.1,12.236 0.299,13.055 C0.581,14.767 0.969,16.148 1.452,17.161 C2.489,19.341 6.855,26.534 8.859,29.811 C6.149,30.156 4.892,31.321 4.892,32.42 C4.892,33.727 6.664,35.134 10.558,35.134 C14.45,35.134 16.223,33.727 16.223,32.42 C16.223,31.321 14.965,30.156 12.256,29.811 C14.26,26.534 18.626,19.341 19.663,17.161 C20.145,16.148 20.533,14.767 20.815,13.055 L20.815,13.055 Z" id="Fill-198"></path>
                <path d="M10.558,14.322 C8.332,14.322 6.522,12.513 6.522,10.287 C6.522,8.062 8.332,6.252 10.558,6.252 C12.783,6.252 14.593,8.062 14.593,10.287 C14.593,12.513 12.783,14.322 10.558,14.322 Z M10.558,4.622 C7.434,4.622 4.892,7.163 4.892,10.287 C4.892,13.411 7.434,15.953 10.558,15.953 C13.682,15.953 16.223,13.411 16.223,10.287 C16.223,7.163 13.682,4.622 10.558,4.622 L10.558,4.622 Z" id="Fill-199"></path>
            </g>
        </g>
    </g>
</svg>