<?xml version="1.0" encoding="UTF-8"?>
<svg width="35px" height="33px" viewBox="0 0 35 33" version="1.1" xmlns="http://www.w3.org/2000/svg" xmlns:xlink="http://www.w3.org/1999/xlink">
    <title>Vuc</title>
    <g id="Page-1" stroke="none" stroke-width="1" fill="none" fill-rule="evenodd">
        <g id="7992" transform="translate(-868.000000, -157.000000)" fill="#FCBA30">
            <g id="Vuc" transform="translate(868.569000, 157.227000)">
                <path d="M5.566,28.599 C5.566,29.105 5.155,29.516 4.65,29.516 L3.665,29.516 C3.16,29.516 2.749,29.105 2.749,28.599 L2.749,26.563 L1.699,26.563 C1.612,26.563 1.528,26.549 1.445,26.537 L1.445,28.599 C1.445,29.824 2.441,30.82 3.665,30.82 L4.65,30.82 C5.874,30.82 6.87,29.824 6.87,28.599 L6.87,26.563 L5.566,26.563 L5.566,28.599" id="Fill-392"></path>
                <path d="M31.184,26.563 L31.184,29.129 C31.184,29.635 30.774,30.046 30.268,30.046 L29.284,30.046 C28.779,30.046 28.368,29.635 28.368,29.129 L28.368,26.563 L27.063,26.563 L27.063,29.129 C27.063,30.354 28.059,31.35 29.284,31.35 L30.268,31.35 C31.493,31.35 32.489,30.354 32.489,29.129 L32.489,26.379 C32.262,26.493 32.009,26.563 31.738,26.563 L31.184,26.563" id="Fill-393"></path>
                <path d="M3.964,8.341 C3.952,8.408 3.705,8.626 3.238,8.626 C2.769,8.626 2.521,8.407 2.511,8.341 L2.511,5.609 C2.521,5.543 2.769,5.324 3.238,5.324 C3.705,5.324 3.953,5.543 3.964,5.608 L3.964,8.341 Z M5.464,2.622 C5.464,1.908 5.884,1.305 6.38,1.305 L27.554,1.305 C28.05,1.305 28.47,1.908 28.47,2.622 L28.47,13.01 L5.464,13.01 L5.464,2.622 Z M30.129,5.608 C30.129,5.522 30.363,5.324 30.749,5.324 C31.136,5.324 31.37,5.522 31.37,5.608 L31.37,8.341 C31.37,8.428 31.136,8.626 30.749,8.626 C30.363,8.626 30.129,8.428 30.129,8.341 L30.129,5.608 Z M2.749,22.346 L2.749,15.251 C2.749,14.734 3.136,14.314 3.612,14.314 L30.322,14.314 C30.797,14.314 31.184,14.734 31.184,15.251 L31.184,22.346 L31.738,22.346 C32.009,22.346 32.262,22.416 32.489,22.529 L32.489,15.251 C32.489,14.015 31.517,13.01 30.322,13.01 L29.775,13.01 L29.775,9.716 C30.059,9.852 30.39,9.93 30.749,9.93 C31.829,9.93 32.675,9.232 32.675,8.341 L32.675,5.608 C32.675,4.717 31.829,4.019 30.749,4.019 C30.39,4.019 30.059,4.098 29.775,4.233 L29.775,2.622 C29.775,1.176 28.778,0 27.554,0 L6.38,0 C5.156,0 4.16,1.176 4.16,2.622 L4.16,4.189 C3.884,4.081 3.572,4.019 3.238,4.019 C2.098,4.019 1.206,4.717 1.206,5.608 L1.206,8.341 C1.206,9.232 2.098,9.93 3.238,9.93 C3.572,9.93 3.884,9.869 4.16,9.761 L4.16,13.01 L3.612,13.01 C2.416,13.01 1.444,14.015 1.444,15.251 L1.444,22.372 C1.528,22.359 1.612,22.346 1.699,22.346 L2.749,22.346 L2.749,22.346 Z" id="Fill-394"></path>
                <path d="M32.484,24.864 C32.484,25.275 32.149,25.609 31.738,25.609 L1.699,25.609 C1.287,25.609 0.953,25.275 0.953,24.864 L0.953,24.045 C0.953,23.634 1.287,23.299 1.699,23.299 L31.738,23.299 C32.149,23.299 32.484,23.634 32.484,24.045 L32.484,24.864 Z M31.738,22.346 L1.699,22.346 C1.612,22.346 1.528,22.359 1.444,22.372 C0.629,22.496 0,23.195 0,24.045 L0,24.864 C0,25.713 0.629,26.413 1.445,26.537 C1.528,26.549 1.612,26.563 1.699,26.563 L31.738,26.563 C32.009,26.563 32.262,26.493 32.489,26.379 C33.048,26.101 33.436,25.53 33.436,24.864 L33.436,24.045 C33.436,23.379 33.048,22.808 32.489,22.529 C32.262,22.416 32.009,22.346 31.738,22.346 L31.738,22.346 Z" id="Fill-395"></path>
                <path d="M26.859,9.822 C26.859,10.29 26.479,10.67 26.012,10.67 L8.576,10.67 C8.109,10.67 7.728,10.29 7.728,9.822 L7.728,4.724 C7.728,4.257 8.109,3.877 8.576,3.877 L26.012,3.877 C26.479,3.877 26.859,4.257 26.859,4.724 L26.859,9.822 Z M26.012,3.225 L8.576,3.225 C7.749,3.225 7.076,3.898 7.076,4.724 L7.076,9.822 C7.076,10.649 7.749,11.323 8.576,11.323 L26.012,11.323 C26.839,11.323 27.512,10.649 27.512,9.822 L27.512,4.724 C27.512,3.898 26.839,3.225 26.012,3.225 L26.012,3.225 Z" id="Fill-396"></path>
                <path d="M8.598,19.421 C7.939,19.421 7.402,18.884 7.402,18.225 C7.402,17.565 7.939,17.029 8.598,17.029 C9.257,17.029 9.793,17.565 9.793,18.225 C9.793,18.884 9.257,19.421 8.598,19.421 Z M8.598,16.377 C7.578,16.377 6.75,17.206 6.75,18.225 C6.75,19.244 7.578,20.073 8.598,20.073 C9.617,20.073 10.446,19.244 10.446,18.225 C10.446,17.206 9.617,16.377 8.598,16.377 L8.598,16.377 Z" id="Fill-397"></path>
                <path d="M25.99,19.421 C25.33,19.421 24.794,18.884 24.794,18.225 C24.794,17.565 25.33,17.029 25.99,17.029 C26.649,17.029 27.185,17.565 27.185,18.225 C27.185,18.884 26.649,19.421 25.99,19.421 Z M25.99,16.377 C24.971,16.377 24.141,17.206 24.141,18.225 C24.141,19.244 24.971,20.073 25.99,20.073 C27.009,20.073 27.838,19.244 27.838,18.225 C27.838,17.206 27.009,16.377 25.99,16.377 L25.99,16.377 Z" id="Fill-398"></path>
            </g>
        </g>
    </g>
</svg>